# xmcd
#
# Track frame offsets:
#	150
#	16213
#	32510
#	45878
#	58085
#	71868
#	86025
#	97380
#	114840
#	127730
#
# Disc length: 1893 seconds
#
# Revision: 1
# Processed by: cddbd v1.5.1PL2 Copyright (c) Steve Scherf et al.
# Submitted via: audiograbber 1.83.01
#
DISCID=7b07630a
DTITLE=Spencers - 20th Anniversary
DYEAR=1992
DGENRE=Southern Gospel
TTITLE0=Once Was Enough
TTITLE1=He's Been Too Good To Me
TTITLE2=He Is Mine
TTITLE3=Some Dawning
TTITLE4=Home Where My Heart Belongs
TTITLE5=O Come Angel Band
TTITLE6=I Won't Let The Valley Get Me Down
TTITLE7=For Those
TTITLE8=Hallelujah Morning
TTITLE9=We Shall Meet
EXTD=
EXTT0=
EXTT1=
EXTT2=
EXTT3=
EXTT4=
EXTT5=
EXTT6=
EXTT7=
EXTT8=
EXTT9=
PLAYORDER=
